<mxfile host="app.diagrams.net" modified="2021-04-25T03:09:00.308Z" agent="5.0 (Windows NT 10.0; Win64; x64) AppleWebKit/537.36 (KHTML, like Gecko) Chrome/89.0.4389.82 Safari/537.36" etag="tfnRIMbaS0QDlOIoVVZh" version="14.6.6" type="github">
  <diagram id="42nxApLkyTefaJiOnG2o" name="Page-1">
    <mxGraphModel dx="942" dy="583" grid="1" gridSize="10" guides="1" tooltips="1" connect="1" arrows="1" fold="1" page="1" pageScale="1" pageWidth="827" pageHeight="1169" math="0" shadow="0">
      <root>
        <mxCell id="0" />
        <mxCell id="1" parent="0" />
        <mxCell id="AX4wqFNYR-uD2McWScdK-4" style="edgeStyle=orthogonalEdgeStyle;rounded=0;orthogonalLoop=1;jettySize=auto;html=1;" edge="1" parent="1" source="AX4wqFNYR-uD2McWScdK-1" target="AX4wqFNYR-uD2McWScdK-2">
          <mxGeometry relative="1" as="geometry" />
        </mxCell>
        <mxCell id="AX4wqFNYR-uD2McWScdK-1" value="" style="rounded=1;whiteSpace=wrap;html=1;strokeWidth=2;fillWeight=4;hachureGap=8;hachureAngle=45;fillColor=#1ba1e2;sketch=1;" vertex="1" parent="1">
          <mxGeometry x="180" y="210" width="120" height="60" as="geometry" />
        </mxCell>
        <mxCell id="AX4wqFNYR-uD2McWScdK-5" style="edgeStyle=orthogonalEdgeStyle;rounded=0;orthogonalLoop=1;jettySize=auto;html=1;" edge="1" parent="1" source="AX4wqFNYR-uD2McWScdK-2" target="AX4wqFNYR-uD2McWScdK-3">
          <mxGeometry relative="1" as="geometry" />
        </mxCell>
        <mxCell id="AX4wqFNYR-uD2McWScdK-2" value="" style="ellipse;whiteSpace=wrap;html=1;strokeWidth=2;fillWeight=2;hachureGap=8;fillColor=#990000;fillStyle=dots;sketch=1;" vertex="1" parent="1">
          <mxGeometry x="240" y="350" width="120" height="60" as="geometry" />
        </mxCell>
        <mxCell id="AX4wqFNYR-uD2McWScdK-3" value="" style="rhombus;whiteSpace=wrap;html=1;strokeWidth=2;fillWeight=-1;hachureGap=8;fillStyle=cross-hatch;fillColor=#006600;sketch=1;" vertex="1" parent="1">
          <mxGeometry x="70" y="480" width="120" height="60" as="geometry" />
        </mxCell>
      </root>
    </mxGraphModel>
  </diagram>
</mxfile>
